<?xml version="1.0" encoding="UTF-8" ?>
<svg version="1.1" width="64" height="64" xmlns="http://www.w3.org/2000/svg" shape-rendering="crispEdges">
<rect x="30" y="2" width="1" height="1" fill="#FFFFFF" />
<rect x="31" y="2" width="1" height="1" fill="#FFFFFF" />
<rect x="32" y="2" width="1" height="1" fill="#FFFFFF" />
<rect x="33" y="2" width="1" height="1" fill="#FFFFFF" />
<rect x="34" y="2" width="1" height="1" fill="#FFFFFF" />
<rect x="35" y="2" width="1" height="1" fill="#FFFFFF" />
<rect x="36" y="2" width="1" height="1" fill="#FFFFFF" />
<rect x="37" y="2" width="1" height="1" fill="#FFFFFF" />
<rect x="38" y="2" width="1" height="1" fill="#FFFFFF" />
<rect x="28" y="3" width="1" height="1" fill="#FFFFFF" />
<rect x="29" y="3" width="1" height="1" fill="#FFFFFF" />
<rect x="38" y="3" width="1" height="1" fill="#FFFFFF" />
<rect x="39" y="3" width="1" height="1" fill="#FFFFFF" />
<rect x="27" y="4" width="1" height="1" fill="#FFFFFF" />
<rect x="28" y="4" width="1" height="1" fill="#FFFFFF" />
<rect x="31" y="4" width="1" height="1" fill="#FFFFFF" />
<rect x="38" y="4" width="1" height="1" fill="#FFFFFF" />
<rect x="40" y="4" width="1" height="1" fill="#FFFFFF" />
<rect x="26" y="5" width="1" height="1" fill="#FFFFFF" />
<rect x="27" y="5" width="1" height="1" fill="#FFFFFF" />
<rect x="31" y="5" width="1" height="1" fill="#FFFFFF" />
<rect x="32" y="5" width="1" height="1" fill="#FFFFFF" />
<rect x="36" y="5" width="1" height="1" fill="#FFFFFF" />
<rect x="37" y="5" width="1" height="1" fill="#FFFFFF" />
<rect x="41" y="5" width="1" height="1" fill="#FFFFFF" />
<rect x="42" y="5" width="1" height="1" fill="#FFFFFF" />
<rect x="26" y="6" width="1" height="1" fill="#FFFFFF" />
<rect x="32" y="6" width="1" height="1" fill="#FFFFFF" />
<rect x="35" y="6" width="1" height="1" fill="#FFFFFF" />
<rect x="36" y="6" width="1" height="1" fill="#FFFFFF" />
<rect x="42" y="6" width="1" height="1" fill="#FFFFFF" />
<rect x="25" y="7" width="1" height="1" fill="#FFFFFF" />
<rect x="26" y="7" width="1" height="1" fill="#FFFFFF" />
<rect x="30" y="7" width="1" height="1" fill="#FFFFFF" />
<rect x="31" y="7" width="1" height="1" fill="#FFFFFF" />
<rect x="37" y="7" width="1" height="1" fill="#FFFFFF" />
<rect x="38" y="7" width="1" height="1" fill="#FFFFFF" />
<rect x="42" y="7" width="1" height="1" fill="#FFFFFF" />
<rect x="43" y="7" width="1" height="1" fill="#FFFFFF" />
<rect x="25" y="8" width="1" height="1" fill="#FFFFFF" />
<rect x="30" y="8" width="1" height="1" fill="#FFFFFF" />
<rect x="31" y="8" width="1" height="1" fill="#FFFFFF" />
<rect x="37" y="8" width="1" height="1" fill="#FFFFFF" />
<rect x="38" y="8" width="1" height="1" fill="#FFFFFF" />
<rect x="43" y="8" width="1" height="1" fill="#FFFFFF" />
<rect x="25" y="9" width="1" height="1" fill="#FFFFFF" />
<rect x="43" y="9" width="1" height="1" fill="#FFFFFF" />
<rect x="24" y="10" width="1" height="1" fill="#FFFFFF" />
<rect x="43" y="10" width="1" height="1" fill="#FFFFFF" />
<rect x="24" y="11" width="1" height="1" fill="#FFFFFF" />
<rect x="43" y="11" width="1" height="1" fill="#FFFFFF" />
<rect x="24" y="12" width="1" height="1" fill="#FFFFFF" />
<rect x="43" y="12" width="1" height="1" fill="#FFFFFF" />
<rect x="24" y="13" width="1" height="1" fill="#FFFFFF" />
<rect x="43" y="13" width="1" height="1" fill="#FFFFFF" />
<rect x="24" y="14" width="1" height="1" fill="#FFFFFF" />
<rect x="25" y="14" width="1" height="1" fill="#FFFFFF" />
<rect x="32" y="14" width="1" height="1" fill="#FFFFFF" />
<rect x="33" y="14" width="1" height="1" fill="#FFFFFF" />
<rect x="34" y="14" width="1" height="1" fill="#FFFFFF" />
<rect x="35" y="14" width="1" height="1" fill="#FFFFFF" />
<rect x="36" y="14" width="1" height="1" fill="#FFFFFF" />
<rect x="43" y="14" width="1" height="1" fill="#FFFFFF" />
<rect x="25" y="15" width="1" height="1" fill="#FFFFFF" />
<rect x="26" y="15" width="1" height="1" fill="#FFFFFF" />
<rect x="31" y="15" width="1" height="1" fill="#FFFFFF" />
<rect x="32" y="15" width="1" height="1" fill="#FFFFFF" />
<rect x="36" y="15" width="1" height="1" fill="#FFFFFF" />
<rect x="37" y="15" width="1" height="1" fill="#FFFFFF" />
<rect x="43" y="15" width="1" height="1" fill="#FFFFFF" />
<rect x="26" y="16" width="1" height="1" fill="#FFFFFF" />
<rect x="31" y="16" width="1" height="1" fill="#FFFFFF" />
<rect x="37" y="16" width="1" height="1" fill="#FFFFFF" />
<rect x="42" y="16" width="1" height="1" fill="#FFFFFF" />
<rect x="27" y="17" width="1" height="1" fill="#FFFFFF" />
<rect x="42" y="17" width="1" height="1" fill="#FFFFFF" />
<rect x="27" y="18" width="1" height="1" fill="#FFFFFF" />
<rect x="42" y="18" width="1" height="1" fill="#FFFFFF" />
<rect x="28" y="19" width="1" height="1" fill="#FFFFFF" />
<rect x="40" y="19" width="1" height="1" fill="#FFFFFF" />
<rect x="41" y="19" width="1" height="1" fill="#FFFFFF" />
<rect x="42" y="19" width="1" height="1" fill="#FFFFFF" />
<rect x="28" y="20" width="1" height="1" fill="#FFFFFF" />
<rect x="29" y="20" width="1" height="1" fill="#FFFFFF" />
<rect x="38" y="20" width="1" height="1" fill="#FFFFFF" />
<rect x="39" y="20" width="1" height="1" fill="#FFFFFF" />
<rect x="40" y="20" width="1" height="1" fill="#FFFFFF" />
<rect x="29" y="21" width="1" height="1" fill="#FFFFFF" />
<rect x="30" y="21" width="1" height="1" fill="#FFFFFF" />
<rect x="35" y="21" width="1" height="1" fill="#FFFFFF" />
<rect x="36" y="21" width="1" height="1" fill="#FFFFFF" />
<rect x="37" y="21" width="1" height="1" fill="#FFFFFF" />
<rect x="38" y="21" width="1" height="1" fill="#FFFFFF" />
<rect x="30" y="22" width="1" height="1" fill="#FFFFFF" />
<rect x="31" y="22" width="1" height="1" fill="#FFFFFF" />
<rect x="32" y="22" width="1" height="1" fill="#FFFFFF" />
<rect x="33" y="22" width="1" height="1" fill="#FFFFFF" />
<rect x="34" y="22" width="1" height="1" fill="#FFFFFF" />
<rect x="35" y="22" width="1" height="1" fill="#FFFFFF" />
<rect x="29" y="23" width="1" height="1" fill="#FFFFFF" />
<rect x="30" y="23" width="1" height="1" fill="#FFFFFF" />
<rect x="31" y="23" width="1" height="1" fill="#FFFFFF" />
<rect x="33" y="23" width="1" height="1" fill="#FFFFFF" />
<rect x="34" y="23" width="1" height="1" fill="#FFFFFF" />
<rect x="35" y="23" width="1" height="1" fill="#FFFFFF" />
<rect x="28" y="24" width="1" height="1" fill="#FFFFFF" />
<rect x="31" y="24" width="1" height="1" fill="#FFFFFF" />
<rect x="35" y="24" width="1" height="1" fill="#FFFFFF" />
<rect x="36" y="24" width="1" height="1" fill="#FFFFFF" />
<rect x="37" y="24" width="1" height="1" fill="#FFFFFF" />
<rect x="27" y="25" width="1" height="1" fill="#FFFFFF" />
<rect x="31" y="25" width="1" height="1" fill="#FFFFFF" />
<rect x="37" y="25" width="1" height="1" fill="#FFFFFF" />
<rect x="25" y="26" width="1" height="1" fill="#FFFFFF" />
<rect x="26" y="26" width="1" height="1" fill="#FFFFFF" />
<rect x="31" y="26" width="1" height="1" fill="#FFFFFF" />
<rect x="38" y="26" width="1" height="1" fill="#FFFFFF" />
<rect x="39" y="26" width="1" height="1" fill="#FFFFFF" />
<rect x="40" y="26" width="1" height="1" fill="#FFFFFF" />
<rect x="24" y="27" width="1" height="1" fill="#FFFFFF" />
<rect x="25" y="27" width="1" height="1" fill="#FFFFFF" />
<rect x="31" y="27" width="1" height="1" fill="#FFFFFF" />
<rect x="40" y="27" width="1" height="1" fill="#FFFFFF" />
<rect x="41" y="27" width="1" height="1" fill="#FFFFFF" />
<rect x="23" y="28" width="1" height="1" fill="#FFFFFF" />
<rect x="24" y="28" width="1" height="1" fill="#FFFFFF" />
<rect x="31" y="28" width="1" height="1" fill="#FFFFFF" />
<rect x="41" y="28" width="1" height="1" fill="#FFFFFF" />
<rect x="42" y="28" width="1" height="1" fill="#FFFFFF" />
<rect x="21" y="29" width="1" height="1" fill="#FFFFFF" />
<rect x="22" y="29" width="1" height="1" fill="#FFFFFF" />
<rect x="31" y="29" width="1" height="1" fill="#FFFFFF" />
<rect x="42" y="29" width="1" height="1" fill="#FFFFFF" />
<rect x="43" y="29" width="1" height="1" fill="#FFFFFF" />
<rect x="19" y="30" width="1" height="1" fill="#FFFFFF" />
<rect x="20" y="30" width="1" height="1" fill="#FFFFFF" />
<rect x="31" y="30" width="1" height="1" fill="#FFFFFF" />
<rect x="43" y="30" width="1" height="1" fill="#FFFFFF" />
<rect x="44" y="30" width="1" height="1" fill="#FFFFFF" />
<rect x="45" y="30" width="1" height="1" fill="#FFFFFF" />
<rect x="18" y="31" width="1" height="1" fill="#FFFFFF" />
<rect x="19" y="31" width="1" height="1" fill="#FFFFFF" />
<rect x="30" y="31" width="1" height="1" fill="#FFFFFF" />
<rect x="45" y="31" width="1" height="1" fill="#FFFFFF" />
<rect x="46" y="31" width="1" height="1" fill="#FFFFFF" />
<rect x="15" y="32" width="1" height="1" fill="#FFFFFF" />
<rect x="16" y="32" width="1" height="1" fill="#FFFFFF" />
<rect x="17" y="32" width="1" height="1" fill="#FFFFFF" />
<rect x="18" y="32" width="1" height="1" fill="#FFFFFF" />
<rect x="30" y="32" width="1" height="1" fill="#FFFFFF" />
<rect x="46" y="32" width="1" height="1" fill="#FFFFFF" />
<rect x="47" y="32" width="1" height="1" fill="#FFFFFF" />
<rect x="14" y="33" width="1" height="1" fill="#FFFFFF" />
<rect x="15" y="33" width="1" height="1" fill="#FFFFFF" />
<rect x="30" y="33" width="1" height="1" fill="#FFFFFF" />
<rect x="30" y="34" width="1" height="1" fill="#FFFFFF" />
<rect x="29" y="35" width="1" height="1" fill="#FFFFFF" />
<rect x="29" y="36" width="1" height="1" fill="#FFFFFF" />
<rect x="29" y="37" width="1" height="1" fill="#FFFFFF" />
<rect x="29" y="38" width="1" height="1" fill="#FFFFFF" />
<rect x="29" y="39" width="1" height="1" fill="#FFFFFF" />
<rect x="29" y="40" width="1" height="1" fill="#FFFFFF" />
<rect x="29" y="41" width="1" height="1" fill="#FFFFFF" />
<rect x="28" y="42" width="1" height="1" fill="#FFFFFF" />
<rect x="29" y="42" width="1" height="1" fill="#FFFFFF" />
<rect x="28" y="43" width="1" height="1" fill="#FFFFFF" />
<rect x="27" y="44" width="1" height="1" fill="#FFFFFF" />
<rect x="28" y="44" width="1" height="1" fill="#FFFFFF" />
<rect x="27" y="45" width="1" height="1" fill="#FFFFFF" />
<rect x="28" y="45" width="1" height="1" fill="#FFFFFF" />
<rect x="29" y="45" width="1" height="1" fill="#FFFFFF" />
<rect x="26" y="46" width="1" height="1" fill="#FFFFFF" />
<rect x="29" y="46" width="1" height="1" fill="#FFFFFF" />
<rect x="30" y="46" width="1" height="1" fill="#FFFFFF" />
<rect x="25" y="47" width="1" height="1" fill="#FFFFFF" />
<rect x="30" y="47" width="1" height="1" fill="#FFFFFF" />
<rect x="31" y="47" width="1" height="1" fill="#FFFFFF" />
<rect x="32" y="47" width="1" height="1" fill="#FFFFFF" />
<rect x="24" y="48" width="1" height="1" fill="#FFFFFF" />
<rect x="32" y="48" width="1" height="1" fill="#FFFFFF" />
<rect x="24" y="49" width="1" height="1" fill="#FFFFFF" />
<rect x="32" y="49" width="1" height="1" fill="#FFFFFF" />
<rect x="33" y="49" width="1" height="1" fill="#FFFFFF" />
<rect x="23" y="50" width="1" height="1" fill="#FFFFFF" />
<rect x="33" y="50" width="1" height="1" fill="#FFFFFF" />
<rect x="21" y="51" width="1" height="1" fill="#FFFFFF" />
<rect x="22" y="51" width="1" height="1" fill="#FFFFFF" />
<rect x="33" y="51" width="1" height="1" fill="#FFFFFF" />
<rect x="34" y="51" width="1" height="1" fill="#FFFFFF" />
<rect x="21" y="52" width="1" height="1" fill="#FFFFFF" />
<rect x="34" y="52" width="1" height="1" fill="#FFFFFF" />
<rect x="21" y="53" width="1" height="1" fill="#FFFFFF" />
<rect x="35" y="53" width="1" height="1" fill="#FFFFFF" />
<rect x="20" y="54" width="1" height="1" fill="#FFFFFF" />
<rect x="35" y="54" width="1" height="1" fill="#FFFFFF" />
<rect x="19" y="55" width="1" height="1" fill="#FFFFFF" />
<rect x="36" y="55" width="1" height="1" fill="#FFFFFF" />
<rect x="19" y="56" width="1" height="1" fill="#FFFFFF" />
<rect x="36" y="56" width="1" height="1" fill="#FFFFFF" />
<rect x="37" y="56" width="1" height="1" fill="#FFFFFF" />
<rect x="18" y="57" width="1" height="1" fill="#FFFFFF" />
<rect x="37" y="57" width="1" height="1" fill="#FFFFFF" />
<rect x="17" y="58" width="1" height="1" fill="#FFFFFF" />
<rect x="37" y="58" width="1" height="1" fill="#FFFFFF" />
<rect x="38" y="58" width="1" height="1" fill="#FFFFFF" />
<rect x="17" y="59" width="1" height="1" fill="#FFFFFF" />
<rect x="38" y="59" width="1" height="1" fill="#FFFFFF" />
<rect x="39" y="59" width="1" height="1" fill="#FFFFFF" />
<rect x="16" y="60" width="1" height="1" fill="#FFFFFF" />
<rect x="39" y="60" width="1" height="1" fill="#FFFFFF" />
<rect x="16" y="61" width="1" height="1" fill="#FFFFFF" />
<rect x="40" y="61" width="1" height="1" fill="#FFFFFF" />
<rect x="15" y="62" width="1" height="1" fill="#FFFFFF" />
<rect x="40" y="62" width="1" height="1" fill="#FFFFFF" />
<rect x="41" y="62" width="1" height="1" fill="#FFFFFF" />
<rect x="15" y="63" width="1" height="1" fill="#FFFFFF" />
</svg>